<svg width="15" height="16" viewBox="0 0 15 16" fill="none" xmlns="http://www.w3.org/2000/svg">
<path d="M14.3233 6.14796C14.263 5.90142 14.082 5.77814 13.8407 5.7165L9.97999 5.16177L8.23059 1.58681C8.04962 1.15535 7.32573 1.15535 7.14476 1.58681L5.39537 5.10013L1.59496 5.7165C1.35366 5.7165 1.17269 5.90142 1.05204 6.14796C0.991716 6.39451 1.05204 6.64106 1.23301 6.76434L4.00791 9.53801L3.34435 13.4828C3.28403 13.7293 3.40467 13.9759 3.58565 14.0992C3.76662 14.2224 4.00791 14.2841 4.24921 14.1608L7.68768 12.3117L11.1261 14.1608C11.2468 14.1608 11.3071 14.1608 11.4278 14.1608C11.5484 14.1608 11.6691 14.0992 11.7897 14.0375C11.9707 13.9143 12.0913 13.6677 12.031 13.4212L11.3674 9.47637L14.1423 6.7027C14.3233 6.57943 14.3836 6.33288 14.3233 6.14796Z" fill="black"/>
<mask id="mask0_2_320" style="mask-type:luminance" maskUnits="userSpaceOnUse" x="1" y="1" width="14" height="14">
<path d="M14.3233 6.14796C14.263 5.90142 14.082 5.77814 13.8407 5.7165L9.97999 5.16177L8.23059 1.58681C8.04962 1.15535 7.32573 1.15535 7.14476 1.58681L5.39537 5.10013L1.59496 5.7165C1.35366 5.7165 1.17269 5.90142 1.05204 6.14796C0.991716 6.39451 1.05204 6.64106 1.23301 6.76434L4.00791 9.53801L3.34435 13.4828C3.28403 13.7293 3.40467 13.9759 3.58565 14.0992C3.76662 14.2224 4.00791 14.2841 4.24921 14.1608L7.68768 12.3117L11.1261 14.1608C11.2468 14.1608 11.3071 14.1608 11.4278 14.1608C11.5484 14.1608 11.6691 14.0992 11.7897 14.0375C11.9707 13.9143 12.0913 13.6677 12.031 13.4212L11.3674 9.47637L14.1423 6.7027C14.3233 6.57943 14.3836 6.33288 14.3233 6.14796Z" fill="white"/>
</mask>
<g mask="url(#mask0_2_320)">
<rect x="0.425049" y="0.646423" width="14.5271" height="14.8169" fill="#FF9F43"/>
</g>
</svg>
